Coordinates
nRows=8
nColumns=24

# SIMM Motion File Header:
name Coordinates
datacolumns 24
datarows 8
otherdata 1
range 0.20499999999999999000 0.21199999999999999000
endheader
time	pelvis_tx	pelvis_ty	pelvis_tz	pelvis_tilt	pelvis_list	pelvis_rotation	hip_flexion_r	hip_adduction_r	hip_rotation_r	knee_angle_r	ankle_angle_r	subtalar_angle_r	mtp_angle_r	hip_flexion_l	hip_adduction_l	hip_rotation_l	knee_angle_l	ankle_angle_l	subtalar_angle_l	mtp_angle_l	lumbar_extension	lumbar_bending	lumbar_rotation
      0.20499999999999999000	      0.20321481968779878000	      0.83751928128370412000	     -0.28001332346946001000	     -3.86562068289857400000	      5.42224877737081550000	     -4.82443391558191340000	     14.64858673797645300000	    -10.11137653868421200000	     -0.28032669066460203000	    -67.90507764205706600000	     -7.85106526356691250000	     -0.00000000000000044716	     -0.00000000000000079065	     10.95972860608749500000	      8.40260220499228970000	     -1.39396259814183290000	     -1.66045532898228810000	     -6.93219072410316350000	      0.00000000000000631755	     -0.00000000000000862000	      7.53584660562403470000	     -7.58513502303405570000	     10.89299451460897900000
      0.20599999999999999000	      0.20418710825825098000	      0.83755237076048783000	     -0.28008651794185468000	     -3.88455125651654900000	      5.41692401865054500000	     -4.81086961541206650000	     14.86141454572904900000	    -10.09213463610029700000	     -0.23028167879267608000	    -68.04722349141944400000	     -7.67458282058148540000	     -0.00000000000000046124	     -0.00000000000000081036	     10.89031927125893000000	      8.41533085005008630000	     -1.42177752212295650000	     -1.63232623576360950000	     -6.88597214558790150000	      0.00000000000000647897	     -0.00000000000000899509	      7.54965275565770180000	     -7.57533807762186930000	     10.85011915470446000000
      0.20699999999999999000	      0.20515919107002423000	      0.83758544845336969000	     -0.28016184650575487000	     -3.90372552374318850000	      5.41276283061967510000	     -4.79610787738816220000	     15.07360588073443400000	    -10.07439657042069400000	     -0.18076320246424074000	    -68.18467220142646600000	     -7.50664268236104610000	     -0.00000000000000047165	     -0.00000000000000083125	     10.82136842735430600000	      8.42980745357733950000	     -1.44872928516397150000	     -1.60390405891455080000	     -6.84631914591008870000	      0.00000000000000662935	     -0.00000000000000934587	      7.56383281122780640000	     -7.56691545620983510000	     10.80634421824923500000
      0.20799999999999999000	      0.20613099502325186000	      0.83761850986406139000	     -0.28024006444633626000	     -3.92322998212961860000	      5.41017600353557620000	     -4.77972485951155600000	     15.28493474216058700000	    -10.05869302987999500000	     -0.13195667608798539000	    -68.31575650775235400000	     -7.35026867496844980000	     -0.00000000000000047703	     -0.00000000000000085384	     10.75303848960088100000	      8.44664959852791420000	     -1.47451154124742970000	     -1.57508529314733160000	     -6.81554706069990690000	      0.00000000000000676467	     -0.00000000000000966360	      7.57851938464276120000	     -7.56035225478714160000	     10.76135148120416000000
      0.20899999999999999000	      0.20710279897647951000	      0.83765157127475320000	     -0.28031828238691764000	     -3.94273444051604870000	      5.40758917645147720000	     -4.76334184163494980000	     15.49626360358674000000	    -10.04298948933929500000	     -0.08315014971173004300	    -68.44684081407824300000	     -7.19389466757585350000	     -0.00000000000000048241	     -0.00000000000000087643	     10.68470855184745400000	      8.46349174347849060000	     -1.50029379733088790000	     -1.54626652738011240000	     -6.78477497548972510000	      0.00000000000000690000	     -0.00000000000000998133	      7.59320595805771690000	     -7.55378905336444810000	     10.71635874415908400000
      0.20999999999999999000	      0.20807404640773508000	      0.83768477876195568000	     -0.28040088940240515000	     -3.96262504531056740000	      5.40685865393668940000	     -4.74446725214637870000	     15.70554487538829300000	    -10.02955238324183400000	     -0.03509178946402450500	    -68.56562785360374300000	     -7.05438628277939370000	     -0.00000000000000047968	     -0.00000000000000093012	     10.61714017406171500000	      8.48341025102358340000	     -1.52394516526939320000	     -1.51696531472299870000	     -6.76394172317579030000	      0.00000000000000704831	     -0.00000000000001034319	      7.60851350830327440000	     -7.54939009790421340000	     10.66955920024850700000
      0.21099999999999999000	      0.20904524697391896000	      0.83771799855035478000	     -0.28048386602470154000	     -3.98254816774141630000	      5.40628445201854020000	     -4.72538284581665380000	     15.91465371835619400000	    -10.01630613504035900000	      0.01290356723483793500	    -68.68337933241628000000	     -6.91629816286322810000	     -0.00000000000000047627	     -0.00000000000000098643	     10.54963592772859300000	      8.50358782103299760000	     -1.54741708975249930000	     -1.48762347490430690000	     -6.74394542634530580000	      0.00000000000000719772	     -0.00000000000001070876	      7.62387335140543780000	     -7.54517339498255520000	     10.62260750397462800000
      0.21199999999999999000	      0.21001619426424059000	      0.83775147733072930000	     -0.28056807328328526000	     -4.00241587591245820000	      5.40584414159290990000	     -4.70558038558278910000	     16.12250852834550900000	    -10.00308443819931300000	      0.06090647135641099500	    -68.79560660309697100000	     -6.78193230568835310000	     -0.00000000000000047382	     -0.00000000000000103932	     10.48212864777280200000	      8.52427039156193980000	     -1.57003469735492040000	     -1.45823616636362120000	     -6.72406739344323510000	      0.00000000000000733563	     -0.00000000000001105644	      7.63920831044859930000	     -7.54109018975989540000	     10.57518193182749000000
